<?xml version="1.0" standalone="yes"?>
<svg xmlns="http://www.w3.org/2000/svg" width="886" height="413">
<path style="fill:#010101; stroke:none;" d="M0 0L0 172L1 172C1 119.454 31.9948 63.9565 74.2894 33.3202C89.5982 22.2311 108.309 10.5742 127 6.3642C130.521 5.57117 144.965 -0.988617 145.787 5.14813C146.256 8.64816 142.28 22.9873 139.682 25.2979C134.686 29.7411 125.179 31.1974 119.09 33.9468C105.272 40.1855 89.8917 49.4607 79 60.0154C40.0035 97.8058 18.3842 151.301 27.3248 206C34.3202 248.798 64.4285 288.822 100.961 310.993C114.765 319.371 152.741 324.489 142.397 347.848C139.982 353.301 130.01 348.753 126 347.576C109.402 342.702 93.0591 334.118 79 324.09C34.2882 292.198 1.00617 238.883 1 183L0 183L0 413L886 413L886 0L0 0z"/>
<path style="fill:#286c78; stroke:none;" d="M212 1L210 2L210 3L212 1z"/>
<path style="fill:#0a3057; stroke:none;" d="M136 3L136 4L145 3L141 25C145.098 15.3236 151.1 0.198486 136 3M213 2L213 3L220 4L213 2z"/>
<path style="fill:#49c2ce; stroke:none;" d="M5 216L9 217L10 214L15 215L15 214L13 212C20.613 210.041 24.7753 214.495 25 222L29 223C18.942 169.428 28.0768 112.408 68.0039 72C79.6697 60.1937 91.6769 49.5483 106 41.0154C112.569 37.1019 119.84 33.1099 127 30.4275C130.701 29.0409 137.514 27.6043 139.972 24.3009C142.949 20.2998 144.768 8.07388 145 3C125.744 3.87997 106.237 14.1977 90 23.4969C39.6643 52.3255 6.67458 107.388 1.16975 165C-0.462649 182.084 2.86084 199.162 5 216z"/>
<path style="fill:#6bc9cd; stroke:none;" d="M210 3C210.988 8.30115 210.852 20.1789 214.028 24.2724C218.917 30.5737 234.926 32.7664 242 36.9259C261.931 48.6461 279.055 61.9187 293.739 80C317.221 108.914 332.487 148.384 329.91 186C328.778 202.538 321.608 217.867 320 234L321 234L333 223L330 201L331 201L332 203L334 190L344 201L345 194L350 194L341 240C345.357 235.057 346.469 227.249 348.151 221C353.071 202.727 354.401 181.768 352.155 163C345.42 106.714 318.331 59.0164 271 26.9722C254.023 15.4785 230.924 3.91235 210 3z"/>
<path style="fill:#286c78; stroke:none;" d="M215.667 3.33334L216.333 3.66666L215.667 3.33334M135.667 4.33334L136.333 4.66666L135.667 4.33334M219 4L219 5L230 7L219 4M210 5L210 12L211 12L210 5z"/>
<path style="fill:#0a3057; stroke:none;" d="M123 7L123 8L129 7L123 7M230 7L230 8L238 10L238 9L230 7M117 9L117 10L123 9L117 9M114.667 10.3333L115.333 10.6667L114.667 10.3333M173 10L173 11L180 11L173 10z"/>
<path style="fill:#286c78; stroke:none;" d="M238 10L238 11L241 11L238 10M112.667 11.3333L113.333 11.6667L112.667 11.3333z"/>
<path style="fill:#a1b1af; stroke:none;" d="M171.667 11.3333L172.333 11.6667L171.667 11.3333z"/>
<path style="fill:#f1fbfb; stroke:none;" d="M163 30L192 31C191.997 25.774 192.157 20.3603 188.581 16.108C183.159 9.66049 169.694 8.80862 164.653 16.3295C162.112 20.1206 163 25.661 163 30z"/>
<path style="fill:#286c78; stroke:none;" d="M181.667 11.3333L182.333 11.6667L181.667 11.3333M242 11L243 12L242 11M110.667 12.3333L111.333 12.6667L110.667 12.3333z"/>
<path style="fill:#0a3057; stroke:none;" d="M184.667 12.3333L185.333 12.6667L184.667 12.3333M211.333 12.6667L211.667 13.3333L211.333 12.6667M244.667 12.3333L245.333 12.6667L244.667 12.3333M246.667 13.3333L247.333 13.6667L246.667 13.3333z"/>
<path style="fill:#286c78; stroke:none;" d="M105.667 14.3333L106.333 14.6667L105.667 14.3333z"/>
<path style="fill:#a1b1af; stroke:none;" d="M166 14L167 15L166 14z"/>
<path style="fill:#286c78; stroke:none;" d="M212 14L212 17L213 17L212 14M248.667 14.3333L249.333 14.6667L248.667 14.3333M103.667 15.3333L104.333 15.6667L103.667 15.3333M163.333 16.6667L163.667 17.3333L163.333 16.6667z"/>
<path style="fill:#0a3057; stroke:none;" d="M212 17L212 25L213 25L212 17z"/>
<path style="fill:#286c78; stroke:none;" d="M162 18L162 29L163 29L162 18z"/>
<path style="fill:#0a3057; stroke:none;" d="M190 18L192 20L192 18L190 18z"/>
<path style="fill:#286c78; stroke:none;" d="M95.6667 19.3333L96.3333 19.6667L95.6667 19.3333M258.667 19.3333L259.333 19.6667L258.667 19.3333z"/>
<path style="fill:#a1b1af; stroke:none;" d="M191.333 20.6667L191.667 21.3333L191.333 20.6667z"/>
<path style="fill:#286c78; stroke:none;" d="M260 20L261 21L260 20M92.6667 21.3333L93.3333 21.6667L92.6667 21.3333z"/>
<path style="fill:#0a3057; stroke:none;" d="M87 24L87 25L92 23L87 24z"/>
<path style="fill:#286c78; stroke:none;" d="M139.667 25.3333L140.333 25.6667L139.667 25.3333M213.667 25.3333L214.333 25.6667L213.667 25.3333z"/>
<path style="fill:#0a3057; stroke:none;" d="M268.667 25.3333L269.333 25.6667L268.667 25.3333M136 26L136 27L139 27L136 26z"/>
<path style="fill:#286c78; stroke:none;" d="M216 26L216 27L219 27L216 26z"/>
<path style="fill:#0a3057; stroke:none;" d="M134.667 27.3333L135.333 27.6667L134.667 27.3333z"/>
<path style="fill:#49c2ce; stroke:none;" d="M220.667 27.3333L221.333 27.6667L220.667 27.3333z"/>
<path style="fill:#0a3057; stroke:none;" d="M131.667 28.3333L132.333 28.6667L131.667 28.3333M274.667 29.3333L275.333 29.6667L274.667 29.3333M126.667 30.3333L127.333 30.6667L126.667 30.3333z"/>
<path style="fill:#a7ee32; stroke:none;" d="M163 30C158.428 34.3387 150.71 35.5996 145 38.3202C133.188 43.9481 119.982 52.1388 111.3 62.0146C107.524 66.3099 100.423 72.9543 100.308 79C100.209 84.192 103.697 88.7659 103.96 94C104.306 100.892 103.054 108.236 104.684 115C110.08 137.381 130.685 159.489 151 169.111C173.477 179.757 218.996 185.649 219 218L213 217C211.594 223.747 216.167 230.023 214.39 237C212.494 244.446 202.317 252.67 202.915 260C204.182 275.512 216.304 280.948 229 283.887C234.673 285.201 239.666 288.174 244.711 283.86C267.409 264.45 271.907 234.702 266.385 207C257.419 162.02 206.314 154.849 170 144.848C154.241 140.508 136.63 125.174 141.789 107C146.924 88.9045 168.827 75.0578 187 81.2323C198.816 85.2469 208.519 94.2004 212.76 106C218.322 121.473 215.408 137.242 236 140.674C239.515 141.26 243.463 141.212 247 140.826C279.767 137.253 266.154 92.0438 254.229 75C239.687 54.2157 213.495 35.3085 188 30.4822C179.816 28.933 171.404 32.0008 163 30z"/>
<path style="fill:#a1b1af; stroke:none;" d="M164 30L164 31L182 31L164 30z"/>
<path style="fill:#286c78; stroke:none;" d="M227.667 30.3333L228.333 30.6667L227.667 30.3333M276.667 30.3333L277.333 30.6667L276.667 30.3333z"/>
<path style="fill:#0a3057; stroke:none;" d="M122 32L122 33L126 32L122 32z"/>
<path style="fill:#256d06; stroke:none;" d="M161.667 31.3333L162.333 31.6667L161.667 31.3333z"/>
<path style="fill:#0a3057; stroke:none;" d="M229.667 31.3333L230.333 31.6667L229.667 31.3333z"/>
<path style="fill:#54be28; stroke:none;" d="M159.667 32.3333L160.333 32.6667L159.667 32.3333z"/>
<path style="fill:#256d06; stroke:none;" d="M193 32L193 33L196 33L193 32z"/>
<path style="fill:#0a3057; stroke:none;" d="M231 32L231 33L234 33L231 32z"/>
<path style="fill:#256d06; stroke:none;" d="M155.667 33.3333L156.333 33.6667L155.667 33.3333M196.667 33.3333L197.333 33.6667L196.667 33.3333M152.667 34.3333L153.333 34.6667L152.667 34.3333z"/>
<path style="fill:#286c78; stroke:none;" d="M236.667 34.3333L237.333 34.6667L236.667 34.3333M282 34L283 35L282 34z"/>
<path style="fill:#54be28; stroke:none;" d="M150.667 35.3333L151.333 35.6667L150.667 35.3333z"/>
<path style="fill:#0a3057; stroke:none;" d="M238.667 35.3333L239.333 35.6667L238.667 35.3333z"/>
<path style="fill:#286c78; stroke:none;" d="M69 36L69 38L71 36L69 36M114.667 36.3333L115.333 36.6667L114.667 36.3333z"/>
<path style="fill:#256d06; stroke:none;" d="M147 36L147 37L150 37L147 36z"/>
<path style="fill:#0a3057; stroke:none;" d="M240.667 36.3333L241.333 36.6667L240.667 36.3333z"/>
<path style="fill:#286c78; stroke:none;" d="M242.667 37.3333L243.333 37.6667L242.667 37.3333M286 37L287 38L286 37z"/>
<path style="fill:#256d06; stroke:none;" d="M143.667 38.3333L144.333 38.6667L143.667 38.3333z"/>
<path style="fill:#286c78; stroke:none;" d="M287 38L288 39L287 38M66 39L67 40L66 39M65 40L66 41L65 40M105 42L108 40L105 42M289 40L292 42L289 40z"/>
<path style="fill:#256d06; stroke:none;" d="M175 41L175 42L181 42L175 41M136 42L136 44L138 42L136 42z"/>
<path style="fill:#010101; stroke:none;" d="M173.001 42.7276C157.02 48.4701 167.859 71.3896 182.956 65.2577C197.234 59.4584 187.91 37.37 173.001 42.7276z"/>
<path style="fill:#0a3057; stroke:none;" d="M101.667 43.3333L102.333 43.6667L101.667 43.3333z"/>
<path style="fill:#286c78; stroke:none;" d="M252.667 43.3333L253.333 43.6667L252.667 43.3333z"/>
<path style="fill:#256d06; stroke:none;" d="M131.667 45.3333L132.333 45.6667L131.667 45.3333z"/>
<path style="fill:#286c78; stroke:none;" d="M168 45L169 46L168 45M255.667 45.3333L256.333 45.6667L255.667 45.3333z"/>
<path style="fill:#256d06; stroke:none;" d="M129 46L129 48L131 46L129 46z"/>
<path style="fill:#0a3057; stroke:none;" d="M225 47L228 49L225 47z"/>
<path style="fill:#286c78; stroke:none;" d="M259 47L260 48L259 47z"/>
<path style="fill:#256d06; stroke:none;" d="M125 49L125 51L127 49L125 49z"/>
<path style="fill:#286c78; stroke:none;" d="M262 49L263 50L262 49M54 50L54 52L56 50L54 50z"/>
<path style="fill:#256d06; stroke:none;" d="M164 51L164 56L165 56L164 51M190 51L190 56L191 56L190 51z"/>
<path style="fill:#286c78; stroke:none;" d="M87 54L90 52L87 54M302 52L303 53L302 52M270 55L271 56L270 55z"/>
<path style="fill:#256d06; stroke:none;" d="M188.333 58.6667L188.667 59.3333L188.333 58.6667z"/>
<path style="fill:#286c78; stroke:none;" d="M308 59L309 60L308 59M44 61L45 62L44 61z"/>
<path style="fill:#0a3057; stroke:none;" d="M311 63L313 65L313 63L311 63z"/>
<path style="fill:#286c78; stroke:none;" d="M41 64L41 66L43 64L41 64z"/>
<path style="fill:#256d06; stroke:none;" d="M109 64L110 65L109 64z"/>
<path style="fill:#0a3057; stroke:none;" d="M170 64L173 66L170 64M173 66L173 67L181 67L173 66z"/>
<path style="fill:#256d06; stroke:none;" d="M247 66L248 67L247 66z"/>
<path style="fill:#286c78; stroke:none;" d="M38.3333 68.6667L38.6667 69.3333L38.3333 68.6667z"/>
<path style="fill:#256d06; stroke:none;" d="M105 68L105 70L107 68L105 68z"/>
<path style="fill:#286c78; stroke:none;" d="M315 68L316 69L315 68M37 70L36 73L37 70M317 71L319 73L319 71L317 71M319 73L320 74L319 73M34 74L33 77L34 74M289 74L290 75L289 74z"/>
<path style="fill:#256d06; stroke:none;" d="M381 74L364 162L383.262 160.972L386.51 149L393 111C399.868 117.854 403.017 131.05 406.6 140C408.038 143.591 409.309 149.637 412.638 151.972C418.484 156.074 423.772 150.046 427.003 145.999C435.994 134.739 444.254 122.613 454 112L444 162L464 162L481 74L463.3 74.6034L449.997 90L420 128L405.399 89L398.582 75.0278L381 74z"/>
<path style="fill:#286c78; stroke:none;" d="M254 75L255 76L254 75M31.3333 78.6667L31.6667 79.3333L31.3333 78.6667z"/>
<path style="fill:#54be28; stroke:none;" d="M99 78C94.8819 87.8391 89.6202 96.1443 88.2863 107C84.1033 141.042 103.06 175.528 136 187.302C159.599 195.737 197.824 193.601 211 219L219 218C219 189.903 186.282 182.544 165 174.91C139.353 165.709 110.585 142.16 105 114C102.394 114 101.614 111.652 102.167 109C104.166 99.4046 106.112 86.2353 99 78M173 79L173 80L180 80L173 79M184.667 80.3333L185.333 80.6667L184.667 80.3333z"/>
<path style="fill:#256d06; stroke:none;" d="M257 80L258 81L257 80z"/>
<path style="fill:#0a3057; stroke:none;" d="M294.333 80.6667L294.667 81.3333L294.333 80.6667z"/>
<path style="fill:#286c78; stroke:none;" d="M29.3333 81.6667L29.6667 82.3333L29.3333 81.6667M58.3333 82.6667L58.6667 83.3333L58.3333 82.6667M28.3333 83.6667L28.6667 84.3333L28.3333 83.6667z"/>
<path style="fill:#0a3057; stroke:none;" d="M95 83L94 87L95 87L97 83L95 83z"/>
<path style="fill:#256d06; stroke:none;" d="M193 83L194 84L193 83z"/>
<path style="fill:#286c78; stroke:none;" d="M297 84L298 85L297 84M326 84L327 85L326 84M26.3333 86.6667L26.6667 87.3333L26.3333 86.6667z"/>
<path style="fill:#256d06; stroke:none;" d="M261.333 87.6667L261.667 88.3333L261.333 87.6667z"/>
<path style="fill:#286c78; stroke:none;" d="M299 87L300 88L299 87M329.333 88.6667L329.667 89.3333L329.333 88.6667z"/>
<path style="fill:#0a3057; stroke:none;" d="M92 89L91 94L92 94L92 89z"/>
<path style="fill:#286c78; stroke:none;" d="M24.3333 90.6667L24.6667 91.3333L24.3333 90.6667z"/>
<path style="fill:#0a3057; stroke:none;" d="M23.3333 91.6667L23.6667 92.3333L23.3333 91.6667M330 91L332 94L330 91z"/>
<path style="fill:#286c78; stroke:none;" d="M22.3333 93.6667L22.6667 94.3333L22.3333 93.6667z"/>
<path style="fill:#256d06; stroke:none;" d="M521 93.4252C510.614 94.8222 500.502 97.8449 493.326 106.04C470.209 132.44 491.454 167.534 525 162.7C559.565 157.719 575.742 101.038 534 94.1451C529.639 93.4249 525.406 92.8325 521 93.4252M596 100L597 94L578.564 95.0278L573.8 112L565 162L585 162C586.654 149.195 587.334 127.004 596.329 117.105C601.659 111.24 615.043 107.21 619.821 116.055C622.282 120.61 620.403 127.289 619.258 132C616.846 141.919 614.944 151.977 613 162L634 162C635.115 140.231 656.363 100.48 623 93.8079C618.889 92.9858 615.111 92.9911 611 93.8079C605.404 94.9198 600.861 97.1039 596 100M708 141C695.257 145.637 676.67 153.426 672 134L724 134C725.092 128.117 725.593 121.907 724.331 116C719.291 92.4124 689.456 88.0627 671 98.5255C658.387 105.676 652.996 118.077 653 132C653.002 137.681 653.297 142.94 656.21 147.996C664.706 162.743 684.779 165.842 700 161.572C704.034 160.44 713.059 158.709 714.172 153.815C715.099 149.741 709.866 144.352 708 141z"/>
<path style="fill:#0a3057; stroke:none;" d="M304 94L306 99L307 99L304 94z"/>
<path style="fill:#256d06; stroke:none;" d="M733 94C733.758 110.597 741.045 127.72 744.399 144C745.488 149.286 748.923 156.626 747.397 161.996C743.854 174.461 732.205 169.546 724 167L716 182C754.149 204.182 775.078 151.466 791.05 126C797.097 116.358 807.393 105.095 810 94L791.326 94.6034L782.939 106L764 139L756.211 107L752.436 95.0278L733 94z"/>
<path style="fill:#286c78; stroke:none;" d="M172.667 95.3333L173.333 95.6667L172.667 95.3333z"/>
<path style="fill:#a1b1af; stroke:none;" d="M168 99L168 100L191 104C186.429 94.2878 176.128 93.1548 168 99z"/>
<path style="fill:#286c78; stroke:none;" d="M181.667 95.3333L182.333 95.6667L181.667 95.3333M170 96L171 97L170 96z"/>
<path style="fill:#256d06; stroke:none;" d="M265.333 96.6667L265.667 97.3333L265.333 96.6667z"/>
<path style="fill:#f1fbfb; stroke:none;" d="M164 127L191 135C191 128.133 194.334 108.79 189.397 103.727C184.491 98.6964 174.293 100 168 100L168 99L171 98C158.894 94.8187 164 120.925 164 127z"/>
<path style="fill:#0a3057; stroke:none;" d="M186 97L188 99L188 97L186 97z"/>
<path style="fill:#286c78; stroke:none;" d="M334.333 98.6667L334.667 99.3333L334.333 98.6667z"/>
<path style="fill:#0a3057; stroke:none;" d="M47 99L46 102L47 99z"/>
<path style="fill:#286c78; stroke:none;" d="M164 99L165 100L164 99z"/>
<path style="fill:#0a3057; stroke:none;" d="M307.333 99.6667L307.667 100.333L307.333 99.6667z"/>
<path style="fill:#256d06; stroke:none;" d="M266 100L266 104L267 104L266 100z"/>
<path style="fill:#286c78; stroke:none;" d="M335.333 100.667L335.667 101.333L335.333 100.667z"/>
<path style="fill:#a1b1af; stroke:none;" d="M163.333 101.667L163.667 102.333L163.333 101.667z"/>
<path style="fill:#286c78; stroke:none;" d="M308 101L309 102L308 101z"/>
<path style="fill:#0a3057; stroke:none;" d="M45.3333 102.667L45.6667 103.333L45.3333 102.667z"/>
<path style="fill:#286c78; stroke:none;" d="M88 102L88 106L89 106L88 102M191 102L191 118L192 118L191 102M17.3333 103.667L17.6667 104.333L17.3333 103.667M309 103L310 104L309 103M162 104L162 115L163 115L162 104z"/>
<path style="fill:#0a3057; stroke:none;" d="M16 105L16 108L17 108L16 105z"/>
<path style="fill:#256d06; stroke:none;" d="M103 106L103 115L104 115L103 106z"/>
<path style="fill:#0a3057; stroke:none;" d="M338.333 106.667L338.667 107.333L338.333 106.667z"/>
<path style="fill:#256d06; stroke:none;" d="M141 107L141 119L142 119L141 107z"/>
<path style="fill:#0a3057; stroke:none;" d="M213 107L213 111L214 111L213 107M15 108L14 112L15 112L15 108M42.3333 108.667L42.6667 109.333L42.3333 108.667z"/>
<path style="fill:#286c78; stroke:none;" d="M339.333 109.667L339.667 110.333L339.333 109.667z"/>
<path style="fill:#010101; stroke:none;" d="M674 122L706 122C705.443 103.244 677.261 105.623 674 122z"/>
<path style="fill:#0a3057; stroke:none;" d="M41.3333 110.667L41.6667 111.333L41.3333 110.667z"/>
<path style="fill:#256d06; stroke:none;" d="M87 110L87 121L88 121L87 110z"/>
<path style="fill:#54be28; stroke:none;" d="M267 110L267 118L268 118L267 110z"/>
<path style="fill:#010101; stroke:none;" d="M518 110.638C496.833 116.755 500.778 152.881 525 145.695C545.375 139.651 542.081 103.679 518 110.638z"/>
<path style="fill:#286c78; stroke:none;" d="M340.333 111.667L340.667 112.333L340.333 111.667z"/>
<path style="fill:#0a3057; stroke:none;" d="M13 112L12 117L13 117L13 112z"/>
<path style="fill:#286c78; stroke:none;" d="M214 112L214 115L215 115L214 112M341.333 113.667L341.667 114.333L341.333 113.667z"/>
<path style="fill:#a1b1af; stroke:none;" d="M163 115L163 126L164 126L163 115z"/>
<path style="fill:#0a3057; stroke:none;" d="M315.333 115.667L315.667 116.333L315.333 115.667M38 116L37 121L38 121L38 116z"/>
<path style="fill:#286c78; stroke:none;" d="M342.333 116.667L342.667 117.333L342.333 116.667z"/>
<path style="fill:#a1b1af; stroke:none;" d="M191 118L191 135L192 135L191 118z"/>
<path style="fill:#54be28; stroke:none;" d="M215 118L215 121L216 121L215 118z"/>
<path style="fill:#0a3057; stroke:none;" d="M317 119L317 122L318 122L317 119z"/>
<path style="fill:#286c78; stroke:none;" d="M343.333 119.667L343.667 120.333L343.333 119.667z"/>
<path style="fill:#0a3057; stroke:none;" d="M10 120L10 123L11 123L10 120M36 121L36 124L37 124L36 121M87 121L87 129L88 129L87 121M344 121L344 124L345 124L344 121M9 123L9 126L10 126L9 123z"/>
<path style="fill:#54be28; stroke:none;" d="M266 123L266 126L267 126L266 123z"/>
<path style="fill:#0a3057; stroke:none;" d="M35.3333 124.667L35.6667 125.333L35.3333 124.667z"/>
<path style="fill:#256d06; stroke:none;" d="M216 124L217 130L218 130L216 124z"/>
<path style="fill:#0a3057; stroke:none;" d="M319 124L319 127L320 127L319 124M345 125L346 130L347 130L345 125M34 126L34 129L35 129L34 126M652 126L652 139L653 139L652 126z"/>
<path style="fill:#286c78; stroke:none;" d="M88 127L88 131L89 131L88 127M166 127L167 128L166 127z"/>
<path style="fill:#0a3057; stroke:none;" d="M320 127L320 130L321 130L320 127z"/>
<path style="fill:#a1b1af; stroke:none;" d="M169 128L170 129L169 128z"/>
<path style="fill:#0a3057; stroke:none;" d="M7 129L7 133L8 133L7 129z"/>
<path style="fill:#a1b1af; stroke:none;" d="M171.667 129.333L172.333 129.667L171.667 129.333z"/>
<path style="fill:#0a3057; stroke:none;" d="M321.333 130.667L321.667 131.333L321.333 130.667z"/>
<path style="fill:#a1b1af; stroke:none;" d="M176.667 131.333L177.333 131.667L176.667 131.333z"/>
<path style="fill:#0a3057; stroke:none;" d="M32.3333 132.667L32.6667 133.333L32.3333 132.667z"/>
<path style="fill:#286c78; stroke:none;" d="M148 132L149 133L148 132z"/>
<path style="fill:#a1b1af; stroke:none;" d="M179.667 132.333L180.333 132.667L179.667 132.333z"/>
<path style="fill:#286c78; stroke:none;" d="M347.333 132.667L347.667 133.333L347.333 132.667z"/>
<path style="fill:#256d06; stroke:none;" d="M89.3333 133.667L89.6667 134.333L89.3333 133.667z"/>
<path style="fill:#0a3057; stroke:none;" d="M322 133L322 136L323 136L322 133z"/>
<path style="fill:#286c78; stroke:none;" d="M31 134L31 137L32 137L31 134M185.667 134.333L186.333 134.667L185.667 134.333z"/>
<path style="fill:#0a3057; stroke:none;" d="M348 134L348 137L349 137L348 134z"/>
<path style="fill:#286c78; stroke:none;" d="M189.667 135.333L190.333 135.667L189.667 135.333z"/>
<path style="fill:#0a3057; stroke:none;" d="M5 136L5 139L6 139L5 136z"/>
<path style="fill:#256d06; stroke:none;" d="M223.667 136.333L224.333 136.667L223.667 136.333z"/>
<path style="fill:#0a3057; stroke:none;" d="M323 136L323 139L324 139L323 136z"/>
<path style="fill:#256d06; stroke:none;" d="M90.3333 137.667L90.6667 138.333L90.3333 137.667z"/>
<path style="fill:#0a3057; stroke:none;" d="M255 139L258 137L255 139M30 138L30 141L31 141L30 138z"/>
<path style="fill:#256d06; stroke:none;" d="M230.667 139.333L231.333 139.667L230.667 139.333z"/>
<path style="fill:#0a3057; stroke:none;" d="M324 139L324 143L325 143L324 139z"/>
<path style="fill:#286c78; stroke:none;" d="M349 139L349 142L350 142L349 139z"/>
<path style="fill:#256d06; stroke:none;" d="M232 140L232 141L235 141L232 140M249.667 140.333L250.333 140.667L249.667 140.333z"/>
<path style="fill:#286c78; stroke:none;" d="M29 141L27 152L28 152L29 141z"/>
<path style="fill:#256d06; stroke:none;" d="M238 141L238 142L248 142L238 141z"/>
<path style="fill:#286c78; stroke:none;" d="M4 142L4 146L5 146L4 142M325.333 142.667L325.667 143.333L325.333 142.667z"/>
<path style="fill:#256d06; stroke:none;" d="M165.667 143.333L166.333 143.667L165.667 143.333z"/>
<path style="fill:#0a3057; stroke:none;" d="M350.333 143.667L350.667 144.333L350.333 143.667M168 144L168 145L172 145L168 144M3 145L3 150L4 150L3 145z"/>
<path style="fill:#256d06; stroke:none;" d="M172.667 145.333L173.333 145.667L172.667 145.333z"/>
<path style="fill:#49c2ce; stroke:none;" d="M350 145L350 150L351 150L350 145z"/>
<path style="fill:#256d06; stroke:none;" d="M176 146L176 147L179 147L176 146M180.667 147.333L181.333 147.667L180.667 147.333z"/>
<path style="fill:#0a3057; stroke:none;" d="M326 147L326 153L327 153L326 147M351 149L351 153L352 153L351 149M191 150L191 151L197 152L191 150z"/>
<path style="fill:#286c78; stroke:none;" d="M327 151L327 154L328 154L327 151M2 152L2 156L3 156L2 152z"/>
<path style="fill:#0a3057; stroke:none;" d="M27 152L26 163L27 163L27 152z"/>
<path style="fill:#256d06; stroke:none;" d="M202 153L202 154L205 154L202 153z"/>
<path style="fill:#49c2ce; stroke:none;" d="M351 153L351 158L352 158L351 153z"/>
<path style="fill:#0a3057; stroke:none;" d="M327 154L327 159L328 159L327 154z"/>
<path style="fill:#286c78; stroke:none;" d="M209 155L209 156L212 156L209 155z"/>
<path style="fill:#0a3057; stroke:none;" d="M1 157L1 163L2 163L1 157z"/>
<path style="fill:#286c78; stroke:none;" d="M328 157L328 160L329 160L328 157z"/>
<path style="fill:#0a3057; stroke:none;" d="M352 157L352 161L353 161L352 157z"/>
<path style="fill:#286c78; stroke:none;" d="M25 160L25 164L26 164L25 160z"/>
<path style="fill:#0a3057; stroke:none;" d="M328 160L328 169L329 169L328 160z"/>
<path style="fill:#286c78; stroke:none;" d="M352 161L352 166L353 166L352 161z"/>
<path style="fill:#0a3057; stroke:none;" d="M25 164L25 179L26 179L25 164M353 164L353 195L354 195L353 164M296 165L296 166L300 166L296 165M52 166L52 167L57 167L52 166z"/>
<path style="fill:#286c78; stroke:none;" d="M293.667 166.333L294.333 166.667L293.667 166.333z"/>
<path style="fill:#49c2ce; stroke:none;" d="M295.001 166.588C283.404 169.59 288.014 188.243 299.956 184.485C308.623 181.758 306.022 163.735 295.001 166.588z"/>
<path style="fill:#286c78; stroke:none;" d="M329 166L329 190L330 190L329 166M47 172L48 172L51 167L47 172z"/>
<path style="fill:#6bc9cd; stroke:none;" d="M49 178L50 178C48.3363 167.141 56.3357 168.754 63 173C58.3536 163.36 44.1043 167.289 49 178z"/>
<path style="fill:#286c78; stroke:none;" d="M288 171L292 167L288 171M24 168L24 187L25 187L24 168z"/>
<path style="fill:#49c2ce; stroke:none;" d="M50 178C45.6405 182.409 55.2974 185.671 58.9807 184.254C76.222 177.621 45.2816 157.149 50 178z"/>
<path style="fill:#286c78; stroke:none;" d="M305.333 170.667L305.667 171.333L305.333 170.667z"/>
<path style="fill:#0a3057; stroke:none;" d="M63.3333 171.667L63.6667 172.333L63.3333 171.667M0 172L0 183L1 183L0 172z"/>
<path style="fill:#286c78; stroke:none;" d="M64 173L64 181L65 181L64 173M287 173L287 177L288 177L287 173z"/>
<path style="fill:#0a3057; stroke:none;" d="M303.333 174.667L303.667 175.333L303.333 174.667M47 175L47 181L48 181L47 175z"/>
<path style="fill:#256d06; stroke:none;" d="M117 176L121 179L121 178L117 176z"/>
<path style="fill:#286c78; stroke:none;" d="M304 176L305 177L304 176M288 177L288 182L289 182L288 177M305 177L305 180L306 180L305 177z"/>
<path style="fill:#0a3057; stroke:none;" d="M48 181L51 184L48 181M63 181L58 185L58 186L63 181M304.333 181.667L304.667 182.333L304.333 181.667M25 182L25 194L26 194L25 182M289 182L289 184L291 184L289 182z"/>
<path style="fill:#286c78; stroke:none;" d="M51 184L51 185L58 186L58 185L51 184z"/>
<path style="fill:#0a3057; stroke:none;" d="M291.667 184.333L292.333 184.667L291.667 184.333z"/>
<path style="fill:#286c78; stroke:none;" d="M296 185L296 186L301 186L296 185M1 186L1 194L2 194L1 186z"/>
<path style="fill:#256d06; stroke:none;" d="M256 186L257 187L256 186M440 186L423 274L442.262 272.972L446 260L452 223C458.868 229.854 462.017 243.05 465.6 252C467.038 255.591 468.309 261.637 471.638 263.972C477.484 268.073 482.772 262.046 486.003 257.999C494.994 246.739 503.254 234.613 513 224L503 274L523 274L540 186L522.3 186.603L508.997 202L479 240L464.399 201L457.582 187.028L440 186z"/>
<path style="fill:#0a3057; stroke:none;" d="M328 187L328 194L329 194L328 187z"/>
<path style="fill:#256d06; stroke:none;" d="M146.667 190.333L147.333 190.667L146.667 190.333z"/>
<path style="fill:#49c2ce; stroke:none;" d="M334 190L332 203L331 201L330 201L333 223C317.371 227.992 313.862 247.881 305.675 260C295.39 275.227 283.607 288.821 269 300.112C261.972 305.544 247.636 311.019 243.028 318.468C239.808 323.672 242 335.004 242 341C259.141 337.945 278.381 323.521 291 312.169C324.768 281.79 350 240.696 350 194L345 194L344 201L334 190z"/>
<path style="fill:#286c78; stroke:none;" d="M352 190L352 196L353 196L352 190z"/>
<path style="fill:#256d06; stroke:none;" d="M150.667 191.333L151.333 191.667L150.667 191.333M712 192L710 207C698.256 207 697.444 210.819 696 222L706 222C705.391 235.964 694.417 254.023 703.652 266.985C708.908 274.361 731.966 280.689 737.933 270.606C740.028 267.065 737.304 260.477 736 257C712.308 263.268 725.43 235.251 726 222L744 222L747 207L730 207L732 192L712 192z"/>
<path style="fill:#286c78; stroke:none;" d="M25 194L25 198L26 198L25 194z"/>
<path style="fill:#256d06; stroke:none;" d="M163.667 194.333L164.333 194.667L163.667 194.333z"/>
<path style="fill:#286c78; stroke:none;" d="M328 194L328 198L329 198L328 194z"/>
<path style="fill:#256d06; stroke:none;" d="M171.667 196.333L172.333 196.667L171.667 196.333z"/>
<path style="fill:#0a3057; stroke:none;" d="M352 196L352 202L353 202L352 196M26 197L26 204L27 204L26 197z"/>
<path style="fill:#256d06; stroke:none;" d="M175 197L175 198L179 198L175 197M183.667 199.333L184.333 199.667L183.667 199.333z"/>
<path style="fill:#286c78; stroke:none;" d="M327 199L327 203L328 203L327 199z"/>
<path style="fill:#0a3057; stroke:none;" d="M2 200L2 205L3 205L2 200z"/>
<path style="fill:#256d06; stroke:none;" d="M189.667 201.333L190.333 201.667L189.667 201.333z"/>
<path style="fill:#0a3057; stroke:none;" d="M351 202L351 209L352 209L351 202z"/>
<path style="fill:#a1b1af; stroke:none;" d="M108 205L108 206L116 206L108 205z"/>
<path style="fill:#256d06; stroke:none;" d="M116 205L116 206L119 206L116 205M266 205L266 208L267 208L266 205M592 269L592 274L611 274L624 206C615.372 206 603.027 202.725 602 214C597.462 209.698 593.216 207.025 587 205.924C567.51 202.471 548.683 214.786 543.761 234C538.308 255.287 552.133 276.513 575 274.91C581.273 274.471 586.638 272.129 592 269M630 254L624 269C639.047 275.172 657.465 278.389 673 271.471C682.589 267.2 690.361 255.653 685.991 245.004C680.223 230.949 661.84 238.565 653.377 229.49C649.742 225.593 655.508 221.866 659 221.228C668.242 219.541 676.188 223.68 685 225L692 211C677.575 205.083 660.855 202.427 646 208.88C635.327 213.516 628.144 225.659 633.769 236.96C640.183 249.848 657.606 242.773 665.573 251.512C669.815 256.165 661.426 259.381 658 259.815C647.634 261.126 639.716 255.727 630 254M811 267C809.839 263.355 806.858 255.669 802.79 254.446C799.66 253.505 795.035 257.008 792 257.84C781.615 260.686 769.909 258.018 768 246L805 246C808.531 246 815.457 247.301 818.397 244.972C826.142 238.838 817.009 218.205 811.816 213.329C799.784 202.033 778.268 203.276 765 211.468C745.882 223.273 739.901 256.483 761 269.532C776.763 279.28 795.673 275.063 811 267M857 212L858 206L838 206L825 274L845 274C849.403 251.296 849.185 224 878 224L881 205C872.267 205.375 864.365 207.188 857 212z"/>
<path style="fill:#0a3057; stroke:none;" d="M3 206L3 212L4 212L3 206z"/>
<path style="fill:#a7ee32; stroke:none;" d="M152 283C152 275.739 153.732 265.888 151.272 259C149.065 252.818 143.524 248.287 141.234 242C138.124 233.464 137.82 223.733 132.612 216.04C128.187 209.505 113.428 200.982 105.603 207.179C100.972 210.847 105.42 225.297 106.63 230C111.967 250.758 130.56 276.81 152 283z"/>
<path style="fill:#0a3057; stroke:none;" d="M699 206L699 207L710 207L699 206M730 206L730 207L747 207L730 206z"/>
<path style="fill:#54be28; stroke:none;" d="M152 306L153 270L152 270L152 283C123.298 270.968 104.02 238.407 104 208C86.619 213.909 84.1945 234.901 89.1304 250C96.9224 273.836 124.961 305.364 152 306z"/>
<path style="fill:#0a3057; stroke:none;" d="M124 208L126 210L126 208L124 208z"/>
<path style="fill:#286c78; stroke:none;" d="M163 208L163 217L164 217L167 209L163 208M326.333 208.667L326.667 209.333L326.333 208.667M350 208L350 214L351 214L350 208z"/>
<path style="fill:#a1b1af; stroke:none;" d="M164 209L163 240L164 240L164 217L191 224C190.14 212.69 173.409 209.2 164 209z"/>
<path style="fill:#286c78; stroke:none;" d="M13 212L15 214L15 215L10 214L9 217L6 216C12.4865 266.229 52.6694 309.833 95.0355 333.362C109.622 341.463 124.983 348.646 142 350L142 328C102.688 322.884 64.5362 286.307 45.0154 253.996C39.936 245.589 35.9861 236.24 32.6983 227C31.0928 222.488 30.9474 215.992 27 213L29 223L25 222C24.9147 214.414 21.0353 208.789 13 212z"/>
<path style="fill:#0a3057; stroke:none;" d="M28 210L28 213L29 213L28 210M173.667 210.333L174.333 210.667L173.667 210.333z"/>
<path style="fill:#256d06; stroke:none;" d="M92 217L98 211L92 217z"/>
<path style="fill:#286c78; stroke:none;" d="M325.333 211.667L325.667 212.333L325.333 211.667z"/>
<path style="fill:#0a3057; stroke:none;" d="M4 212L4 215L5 215L4 212z"/>
<path style="fill:#54be28; stroke:none;" d="M267.333 212.667L267.667 213.333L267.333 212.667z"/>
<path style="fill:#0a3057; stroke:none;" d="M324 214L324 218L325 218L324 214M186 215L189 217L186 215M5 216L6 222L7 222L5 216z"/>
<path style="fill:#286c78; stroke:none;" d="M349.333 216.667L349.667 217.333L349.333 216.667z"/>
<path style="fill:#f1fbfb; stroke:none;" d="M164 217L164 334C164 351.797 161.041 372.507 164.228 390C167.209 406.357 189.278 404.084 192 389C199.441 389 210.177 390.562 216.941 386.822C221.553 384.272 222.147 377.814 217.852 374.603C212.108 370.309 197.934 373 191 373L191 360C197.821 360 212.183 362.713 217.772 358.397C222.363 354.851 220.965 348.102 215.906 345.858C209.264 342.912 198.191 345 191 345L191 332C198.064 332 208.363 333.9 214.981 331.258C219.481 329.461 221.853 323.12 217.682 319.603C212.492 315.228 197.53 318 191 318L191 224L164 217z"/>
<path style="fill:#256d06; stroke:none;" d="M90 218L90 220L92 218L90 218z"/>
<path style="fill:#286c78; stroke:none;" d="M190 218L191 219L190 218z"/>
<path style="fill:#54be28; stroke:none;" d="M268 218L268 221L269 221L268 218z"/>
<path style="fill:#0a3057; stroke:none;" d="M269 218L269 239L270 239L269 218z"/>
<path style="fill:#286c78; stroke:none;" d="M323.333 219.667L323.667 220.333L323.333 219.667M348 219L348 222L349 222L348 219z"/>
<path style="fill:#0a3057; stroke:none;" d="M31 221L31 224L32 224L31 221z"/>
<path style="fill:#010101; stroke:none;" d="M769 234L802 234C800.943 214.7 773.622 218.439 769 234z"/>
<path style="fill:#0a3057; stroke:none;" d="M322.333 222.667L322.667 223.333L322.333 222.667z"/>
<path style="fill:#010101; stroke:none;" d="M577 222.649C555.44 229.151 560.273 264.952 585 257.196C605.115 250.887 600.458 215.574 577 222.649z"/>
<path style="fill:#286c78; stroke:none;" d="M347.333 223.667L347.667 224.333L347.333 223.667z"/>
<path style="fill:#0a3057; stroke:none;" d="M32 224L32 227L33 227L32 224z"/>
<path style="fill:#256d06; stroke:none;" d="M87.3333 224.667L87.6667 225.333L87.3333 224.667z"/>
<path style="fill:#286c78; stroke:none;" d="M191 226L191 241L192 241L191 226M321.333 226.667L321.667 227.333L321.333 226.667z"/>
<path style="fill:#0a3057; stroke:none;" d="M8 227L8 230L9 230L8 227M33 227L34 232L35 232L33 227z"/>
<path style="fill:#286c78; stroke:none;" d="M346 227L346 230L347 230L346 227M86 228L86 239L87 239L86 228M214 228L214 238L215 238L214 228z"/>
<path style="fill:#0a3057; stroke:none;" d="M320.333 228.667L320.667 229.333L320.333 228.667M9 230L9 233L10 233L9 230z"/>
<path style="fill:#286c78; stroke:none;" d="M345.333 230.667L345.667 231.333L345.333 230.667M319.333 232.667L319.667 233.333L319.333 232.667z"/>
<path style="fill:#0a3057; stroke:none;" d="M10 233L10 236L11 236L10 233M344 233L344 236L345 236L344 233z"/>
<path style="fill:#286c78; stroke:none;" d="M318.333 234.667L318.667 235.333L318.333 234.667z"/>
<path style="fill:#0a3057; stroke:none;" d="M36.3333 235.667L36.6667 236.333L36.3333 235.667M11 236L11 239L12 239L11 236M317.333 236.667L317.667 237.333L317.333 236.667z"/>
<path style="fill:#286c78; stroke:none;" d="M343.333 236.667L343.667 237.333L343.333 236.667z"/>
<path style="fill:#0a3057; stroke:none;" d="M37 237L45 255L46 255L37 237z"/>
<path style="fill:#256d06; stroke:none;" d="M213.333 238.667L213.667 239.333L213.333 238.667z"/>
<path style="fill:#286c78; stroke:none;" d="M316.333 238.667L316.667 239.333L316.333 238.667M163 240L163 262L164 262L163 240z"/>
<path style="fill:#0a3057; stroke:none;" d="M13 241L15 248L16 248L13 241M191 241L192 294L193 294L197 276L201 278L202 278L204 256L192 262L191 241M341.333 241.667L341.667 242.333L341.333 241.667z"/>
<path style="fill:#54be28; stroke:none;" d="M141.333 242.667L141.667 243.333L141.333 242.667z"/>
<path style="fill:#256d06; stroke:none;" d="M211.333 243.667L211.667 244.333L211.333 243.667z"/>
<path style="fill:#286c78; stroke:none;" d="M267.333 243.667L267.667 244.333L267.333 243.667z"/>
<path style="fill:#0a3057; stroke:none;" d="M340.333 244.667L340.667 245.333L340.333 244.667M339.333 246.667L339.667 247.333L339.333 246.667z"/>
<path style="fill:#256d06; stroke:none;" d="M88 247L88 250L89 250L88 247M144.333 247.667L144.667 248.333L144.333 247.667z"/>
<path style="fill:#54be28; stroke:none;" d="M266.333 247.667L266.667 248.333L266.333 247.667z"/>
<path style="fill:#0a3057; stroke:none;" d="M16.3333 248.667L16.6667 249.333L16.3333 248.667z"/>
<path style="fill:#286c78; stroke:none;" d="M337 251L338 252L337 251z"/>
<path style="fill:#0a3057; stroke:none;" d="M148 254L151 257L148 254M46 255L48 260L49 260L46 255z"/>
<path style="fill:#286c78; stroke:none;" d="M307.333 256.667L307.667 257.333L307.333 256.667z"/>
<path style="fill:#256d06; stroke:none;" d="M151 258L152 306L148 306L148 307L163 310L163 261L151 258z"/>
<path style="fill:#286c78; stroke:none;" d="M305 259L305 261L307 259L305 259M202 260L202 278L201 278L197 276L193 294L192 294L192 282L191 282L192 307L209 303L209 302L202 302L202 260z"/>
<path style="fill:#0a3057; stroke:none;" d="M332.333 260.667L332.667 261.333L332.333 260.667z"/>
<path style="fill:#a1b1af; stroke:none;" d="M163 262L163 302L164 302C164 290.566 167.411 272.512 163 262z"/>
<path style="fill:#54be28; stroke:none;" d="M203 262L202 302C216.224 302.294 230.607 299.244 240 287L212.584 278.437L203 262z"/>
<path style="fill:#0a3057; stroke:none;" d="M95.3333 263.667L95.6667 264.333L95.3333 263.667M26.3333 267.667L26.6667 268.333L26.3333 267.667M55.3333 268.667L55.6667 269.333L55.3333 268.667z"/>
<path style="fill:#286c78; stroke:none;" d="M298 269L298 271L300 269L298 269z"/>
<path style="fill:#0a3057; stroke:none;" d="M57.3333 271.667L57.6667 272.333L57.3333 271.667z"/>
<path style="fill:#286c78; stroke:none;" d="M295 273L295 275L297 273L295 273M290 281L293 278L290 281z"/>
<path style="fill:#0a3057; stroke:none;" d="M34.3333 279.667L34.6667 280.333L34.3333 279.667M319 281L318 284L319 281M316 285L315 288L316 285z"/>
<path style="fill:#256d06; stroke:none;" d="M241 286L242 287L241 286M117.667 289.333L118.333 289.667L117.667 289.333z"/>
<path style="fill:#0a3057; stroke:none;" d="M312.333 290.667L312.667 291.333L312.333 290.667z"/>
<path style="fill:#256d06; stroke:none;" d="M125.667 295.333L126.333 295.667L125.667 295.333z"/>
<path style="fill:#0a3057; stroke:none;" d="M191 297L191 317L216 317L216 316L192 316L191 297M84 299L87 301L84 299z"/>
<path style="fill:#256d06; stroke:none;" d="M136.667 301.333L137.333 301.667L136.667 301.333z"/>
<path style="fill:#286c78; stroke:none;" d="M300 304L304 301L300 304M163 302L163 380L164 380L164 326L163 302z"/>
<path style="fill:#0a3057; stroke:none;" d="M203 304L203 305L211 304L203 304M92.6667 305.333L93.3333 305.667L92.6667 305.333M289 314L294 310L289 314M103.667 312.333L104.333 312.667L103.667 312.333z"/>
<path style="fill:#286c78; stroke:none;" d="M249 314L252 312L249 314z"/>
<path style="fill:#0a3057; stroke:none;" d="M110 316L110 317L115 318L115 317L110 316M243 316L243 318L245 316L243 316z"/>
<path style="fill:#a1b1af; stroke:none;" d="M191 317L191 318L216 318L191 317z"/>
<path style="fill:#286c78; stroke:none;" d="M216 317L217 318L216 317z"/>
<path style="fill:#0a3057; stroke:none;" d="M115 318L115 319L126 323L126 322L115 318M241 318L241 337L242 337L241 318z"/>
<path style="fill:#286c78; stroke:none;" d="M280.667 320.333L281.333 320.667L280.667 320.333z"/>
<path style="fill:#a1b1af; stroke:none;" d="M220 322L220 326L221 326L220 322z"/>
<path style="fill:#0a3057; stroke:none;" d="M78 323L84 327L84 326L78 323M268 328L268 329L273 327L268 328M85.6667 328.333L86.3333 328.667L85.6667 328.333M87 329L87 330L91 331L91 330L87 329M142 330L142 350L143 350L142 330z"/>
<path style="fill:#a1b1af; stroke:none;" d="M215 331L216 332L215 331z"/>
<path style="fill:#286c78; stroke:none;" d="M263.667 331.333L264.333 331.667L263.667 331.333z"/>
<path style="fill:#0a3057; stroke:none;" d="M92.6667 332.333L93.3333 332.667L92.6667 332.333M191 332L191 345L208 345L208 344L192 344L192 333L199 333L191 332z"/>
<path style="fill:#286c78; stroke:none;" d="M199 332L199 333L213 333L199 332z"/>
<path style="fill:#0a3057; stroke:none;" d="M261.667 332.333L262.333 332.667L261.667 332.333M94 333L94 334L99 336L99 335L94 333M259.667 333.333L260.333 333.667L259.667 333.333M99.6667 336.333L100.333 336.667L99.6667 336.333M249 338L249 339L256 337L249 338z"/>
<path style="fill:#286c78; stroke:none;" d="M241 337C240.506 340.137 240.964 341 244 342L244 341L241 337z"/>
<path style="fill:#0a3057; stroke:none;" d="M105 339L108 341L105 339M117 344L117 345L129 348L129 347L117 344z"/>
<path style="fill:#286c78; stroke:none;" d="M208 344L208 345L215 345L208 344M216 345L217 346L216 345z"/>
<path style="fill:#a1b1af; stroke:none;" d="M217 346L218 347L217 346z"/>
<path style="fill:#0a3057; stroke:none;" d="M129 348L129 349L142 351L129 348z"/>
<path style="fill:#a1b1af; stroke:none;" d="M219 348L220 349L219 348z"/>
<path style="fill:#286c78; stroke:none;" d="M220 349L221 350L220 349z"/>
<path style="fill:#0a3057; stroke:none;" d="M221 350L221 354L222 354L221 350z"/>
<path style="fill:#a1b1af; stroke:none;" d="M220 355L221 356L220 355z"/>
<path style="fill:#286c78; stroke:none;" d="M219 357L220 358L219 357M218 358L219 359L218 358z"/>
<path style="fill:#0a3057; stroke:none;" d="M191 360L191 373L206 373L206 372L192 372L192 361L199 361L191 360z"/>
<path style="fill:#286c78; stroke:none;" d="M199 360L199 361L216 361L199 360M206 372L206 373L216 373L206 372z"/>
<path style="fill:#a1b1af; stroke:none;" d="M218 374L219 375L218 374M219 375L220 376L219 375z"/>
<path style="fill:#286c78; stroke:none;" d="M220 376L221 377L220 376z"/>
<path style="fill:#a1b1af; stroke:none;" d="M221 378L221 382L222 382L221 378M163 380L163 388L164 388L163 380z"/>
<path style="fill:#286c78; stroke:none;" d="M216 387L217 388L216 387z"/>
<path style="fill:#0a3057; stroke:none;" d="M163 388L163 392L164 392L163 388z"/>
<path style="fill:#a1b1af; stroke:none;" d="M209 388L209 389L212 389L209 388z"/>
<path style="fill:#286c78; stroke:none;" d="M212.667 388.333L213.333 388.667L212.667 388.333M192 389L192 390L199 390L192 389z"/>
<path style="fill:#0a3057; stroke:none;" d="M199 389L199 390L205 390L199 389M164.333 392.667L164.667 393.333L164.333 392.667z"/>
<path style="fill:#a1b1af; stroke:none;" d="M191 392L192 393L191 392z"/>
<path style="fill:#286c78; stroke:none;" d="M165 394L166 395L165 394z"/>
<path style="fill:#a1b1af; stroke:none;" d="M190 394L191 395L190 394z"/>
<path style="fill:#0a3057; stroke:none;" d="M166 395L166 397L168 397L166 395z"/>
<path style="fill:#286c78; stroke:none;" d="M168 397L169 398L168 397z"/>
<path style="fill:#a1b1af; stroke:none;" d="M188 397L189 398L188 397z"/>
<path style="fill:#286c78; stroke:none;" d="M186 399L187 400L186 399z"/>
<path style="fill:#a1b1af; stroke:none;" d="M184 400L185 401L184 400M175.667 401.333L176.333 401.667L175.667 401.333M182 401L183 402L182 401z"/>
</svg>
